<svg width="220" height="106" viewBox="0 0 220 106" fill="none" xmlns="http://www.w3.org/2000/svg">
<path d="M220 105.308C220 91.4789 217.155 77.785 211.627 65.0085C206.099 52.2319 197.996 40.6228 187.782 30.8441C177.567 21.0653 165.441 13.3084 152.095 8.01616C138.749 2.72393 124.445 6.04307e-05 110 6.10352e-05C95.5546 6.16397e-05 81.2506 2.72394 67.9048 8.01616C54.559 13.3084 42.4327 21.0653 32.2182 30.8441C22.0038 40.6228 13.9013 52.2319 8.37325 65.0085C2.84523 77.785 -1.26286e-06 91.4789 0 105.308L11 105.308C11 92.8618 13.5607 80.5373 18.5359 69.0384C23.5111 57.5395 30.8034 47.0914 39.9964 38.2905C49.1894 29.4896 60.1031 22.5084 72.1143 17.7454C84.1256 12.9824 96.9991 10.5309 110 10.5309C123.001 10.5309 135.874 12.9824 147.886 17.7454C159.897 22.5084 170.811 29.4896 180.004 38.2905C189.197 47.0914 196.489 57.5395 201.464 69.0384C206.439 80.5373 209 92.8618 209 105.308H220Z" fill="#C4C4C4" fill-opacity="0.65"/>
</svg>
